<svg width="104" height="99" viewBox="0 0 104 99" xmlns="http://www.w3.org/2000/svg"><defs><linearGradient x1="-18.209%" y1="-15.677%" x2="94.874%" y2="91.216%" id="a"><stop stop-color="#C8C6C6" offset="0%"/><stop stop-color="#989595" offset="100%"/></linearGradient><linearGradient x1="9.89%" y1="-25.35%" x2="92.94%" y2="95.684%" id="b"><stop stop-color="#DEDBDB" offset="0%"/><stop stop-color="#BAB5B5" offset="100%"/></linearGradient><linearGradient x1="45.63%" y1="15.615%" x2="87.35%" y2="82.448%" id="c"><stop stop-color="#EDEBEB" offset="0%"/><stop stop-color="#D6D2D2" offset="100%"/></linearGradient><linearGradient x1="3.769%" y1="20.287%" x2="72.105%" y2="50%" id="d"><stop stop-color="#4FB1EF" offset="0%"/><stop stop-color="#277ADA" offset="100%"/></linearGradient></defs><g fill="none" fill-rule="evenodd"><rect fill="#F1FFC2" x="2" y="1" width="102" height="98" rx="10"/><path d="M97 19l-2.66 12.416a90 90 0 0 0-1.125 31.367L97.72 94.87A3.485 3.485 0 0 1 92 98C77.111 83.72 67.445 72.72 63 65c-4.445-7.72-7.445-18.72-9-33l43-13z" fill="url(#a)"/><path d="M32 97L14 57l51-14c2 8.667 4.333 15.667 7 21 2.581 5.163 9.535 15.635 20.862 31.417A1 1 0 0 1 92.05 97H32z" fill="url(#b)"/><path fill="url(#c)" d="M84.166 80.5L95 97v1L68 85.116z"/><path d="M56 41c6.595-5.396 18.178-10.253 34.748-14.57A8.398 8.398 0 0 0 97 19L53 31c-5.333 12.667-4.333 16 3 10z" fill="#888383"/><path d="M20.912 64c7.344-5.536 20.387-10.505 39.128-14.906A6.26 6.26 0 0 0 64.868 43L17.656 54c-5.789 12.667-4.703 16 3.256 10z" fill="#888383" opacity=".356"/><path d="M74 93c3.084-3.688 5.666-5.991 7.746-6.908A5.565 5.565 0 0 0 85.066 81L76 82c-6.35 13.333-7.017 17-2 11z" fill="#888383" opacity=".179"/><path d="M10.25 1.017l86.341 17.646a1 1 0 0 1 .086 1.938L57.858 32.168a2 2 0 0 0-.611 3.53l7.367 5.4a2 2 0 0 1-.675 3.548L21.228 55.852a5 5 0 0 0 .157 9.711l62.937 14.355a1 1 0 0 1 .234 1.864l-6.088 3.125a2 2 0 0 0 0 3.559l15.879 8.147.97.497a1 1 0 0 1-.456 1.89l-84.98.002a8 8 0 0 1-8-7.88L.65 8.975a8 8 0 0 1 9.601-7.958z" fill="url(#d)"/></g></svg>